<?xml version="1.0" standalone="no"?>
<!DOCTYPE svg PUBLIC "-//W3C//DTD SVG 20010904//EN"
 "http://www.w3.org/TR/2001/REC-SVG-20010904/DTD/svg10.dtd">
<svg version="1.0" xmlns="http://www.w3.org/2000/svg"
 width="1200.000000pt" height="1200.000000pt" viewBox="0 0 1200.000000 1200.000000"
 preserveAspectRatio="xMidYMid meet">
<metadata>
Created by potrace 1.11, written by Peter Selinger 2001-2013
</metadata>
<g transform="translate(0.000000,1200.000000) scale(0.100000,-0.100000)"
fill="#000000" stroke="none">
<path d="M5825 11989 c-226 -33 -389 -90 -573 -201 -247 -149 -465 -381 -612
-653 -38 -71 -113 -245 -130 -301 -33 -110 -42 -146 -59 -229 -11 -49 -22
-116 -26 -147 l-7 -58 1582 0 1581 0 -6 58 c-23 196 -96 435 -191 627 -222
444 -590 754 -1029 868 -55 14 -120 29 -145 32 -69 10 -329 13 -385 4z"/>
<path d="M1270 11584 c-106 -23 -205 -77 -286 -158 -80 -81 -116 -136 -151
-237 -68 -197 -20 -429 123 -587 54 -61 155 -133 212 -153 l32 -11 0 -1219 0
-1219 200 0 200 0 0 1219 0 1219 43 17 c61 24 158 97 211 157 161 184 189 473
66 685 -42 72 -137 172 -204 212 -132 79 -298 107 -446 75z"/>
<path d="M3805 9989 c-327 -46 -594 -165 -840 -371 -91 -76 -109 -95 -201
-203 -162 -193 -310 -510 -338 -730 -3 -22 -9 -51 -13 -65 -4 -14 -9 -1329
-10 -2922 l-3 -2898 3600 0 3600 0 -3 2893 c-1 1590 -6 2907 -9 2925 -4 18
-12 59 -18 90 -18 90 -18 93 -44 175 -29 88 -41 118 -99 237 -154 314 -434
584 -759 734 -102 46 -247 95 -333 110 -16 3 -42 8 -56 11 -15 3 -55 9 -90 14
-81 12 -4301 12 -4384 0z m1019 -2013 c344 -84 619 -337 726 -669 35 -108 48
-203 45 -332 -3 -125 -6 -144 -31 -235 -32 -117 -102 -261 -169 -349 -20 -26
-174 -176 -202 -197 -177 -130 -388 -195 -618 -190 -269 7 -494 103 -681 291
-139 140 -230 304 -271 488 -21 99 -25 293 -7 389 80 422 394 737 811 812 100
18 305 14 397 -8z m2799 -1 c222 -52 416 -175 560 -355 147 -184 218 -402 213
-650 -6 -264 -102 -486 -291 -675 -203 -203 -445 -298 -741 -291 -67 2 -125 6
-130 9 -5 3 -25 8 -44 11 -49 7 -155 43 -220 74 -231 108 -433 333 -515 577
-37 110 -48 175 -50 302 -3 164 11 249 66 388 119 307 407 551 719 612 14 2
43 8 65 13 62 12 292 3 368 -15z m377 -3575 l0 -400 -2000 0 -2000 0 0 400 0
400 2000 0 2000 0 0 -400z"/>
<path d="M4454 7580 c-281 -74 -462 -317 -449 -605 10 -256 162 -457 412 -547
41 -14 88 -21 161 -23 182 -6 313 46 444 176 126 124 179 262 173 449 -8 248
-175 465 -415 541 -92 30 -234 34 -326 9z"/>
<path d="M7264 7585 c-64 -15 -150 -54 -209 -95 -253 -174 -328 -529 -168
-799 46 -76 154 -181 225 -217 110 -56 166 -69 298 -69 155 1 293 57 405 164
52 50 125 152 125 175 0 9 4 16 8 16 5 0 19 39 30 88 28 113 25 237 -9 341
-56 173 -212 326 -389 382 -79 25 -241 32 -316 14z"/>
<path d="M1050 7585 c-323 -69 -562 -302 -630 -614 -18 -81 -19 -141 -19 -966
0 -932 0 -941 47 -1076 77 -218 262 -404 479 -480 126 -44 178 -48 637 -49
l436 0 0 1600 0 1601 -447 -2 c-302 -1 -466 -6 -503 -14z"/>
<path d="M10000 5999 l0 -1600 473 3 c460 4 474 5 542 27 265 87 454 263 536
498 49 141 48 129 46 1093 -2 498 -6 920 -11 939 -57 250 -229 466 -446 564
-155 71 -205 76 -705 77 l-435 0 0 -1601z"/>
<path d="M800 1600 l0 -800 5200 0 5200 0 0 800 0 800 -5200 0 -5200 0 0 -800z"/>
</g>
</svg>
